<svg xmlns="http://www.w3.org/2000/svg" xmlns:xlink="http://www.w3.org/1999/xlink" version="1.1" x="0px" y="0px" viewBox="0 0 69 86.25" style="enable-background:new 0 0 69 69;" xml:space="preserve"><g><path d="M15.06809,20.48137L13.46602,23.641c-0.91682,1.80815-3.63188,2.52838-4.65936,0.77535   c-0.56992-0.97236-0.49312-2.19817,0.0765-3.1707l2.78412-4.75338c0.65674-1.12127,1.78675-1.884,3.07227-2.07372l11.63418-1.717   c0.68348-0.10087,1.37722,0.09844,1.90294,0.5467l6.38652,5.44559c0.6852,0.58425,1.69681,0.57194,2.36759-0.02881l5.46489-4.89437   c2.95345-0.83865,4.48484,1.42202,3.20869,3.42741c-2.02959,2.48571-4.7259,4.95379-7.71753,7.27299   c-1.19272,0.92464-2.85823,0.99283-4.09665,0.13037c-1.51177-1.05283-3.22557-2.526-4.97479-4.0729   c-0.32832-0.29035-0.8476-0.1365-0.96258,0.28644l-2.4313,8.94368c-0.07113,0.26167,0.07922,0.53458,0.33604,0.62161   c3.25482,1.10305,5.99207,2.13795,7.84361,3.03918c1.73167,0.84288,2.62645,2.78894,2.11049,4.64444   c-0.78245,2.81385-2.55099,6.6854-4.17954,10.40679c-0.90192,2.06099-3.63191,3.07724-4.69903,0.58264   c-0.28591-0.66835-0.27339-1.78571-0.00602-2.4617l3.3289-8.41642c0.07434-0.18794-0.01683-0.40066-0.20419-0.47644   l-5.65678-2.28814c-0.2667-0.10788-0.56869,0.03477-0.65476,0.30928l-2.33503,7.44686   c-0.1331,0.42448-0.37904,0.80481-0.71152,1.10036l-8.37292,7.4426c-1.57738,1.40211-4.17099,0.88211-4.33603-1.08969   c-0.07563-0.90353,0.32487-1.78432,0.98034-2.41078l5.92639-5.66416c1.20574-1.15239,1.73952-1.98326,2.05424-2.90246   c2.38684-6.9711,4.43079-13.82743,6.05965-20.54481c0.11385-0.46952-0.29655-0.89969-0.77229-0.81549l-5.51739,0.97658   C16.00482,19.38471,15.39455,19.83752,15.06809,20.48137z"/><path d="M31.0324,6.46166c0,2.19859-1.77474,3.9734-3.96166,3.9734c-2.19845,0-3.97319-1.77481-3.97319-3.9734   c0-2.18685,1.77474-3.96166,3.97319-3.96166C29.25766,2.5,31.0324,4.27481,31.0324,6.46166z"/><path d="M14.41998,58.37012v6.75c0,0.5498-0.45001,1-1,1H7.25c-0.54999,0-1-0.4502-1-1v-6.75c0-0.55005,0.45001-1,1-1h6.16998   C13.96997,57.37012,14.41998,57.82007,14.41998,58.37012z"/><path d="M30.52997,54.21997v11.09009c0,0.55005-0.45001,1-1,1h-6.16998c-0.54999,0-1-0.44995-1-1V54.21997c0-0.55005,0.45001-1,1-1   h6.16998C30.07996,53.21997,30.52997,53.66992,30.52997,54.21997z"/><path d="M46.63995,46.51001v18.42017c0,0.5498-0.44995,1-1,1h-6.15997c-0.54999,0-1-0.4502-1-1V46.51001c0-0.55005,0.45001-1,1-1   h6.15997C46.19,45.51001,46.63995,45.95996,46.63995,46.51001z"/><path d="M62.75,40.09009V65.5c0,0.55005-0.45001,1-1,1h-6.16003c-0.54999,0-1-0.44995-1-1V40.09009c0-0.55005,0.45001-1,1-1H61.75   C62.29999,39.09009,62.75,39.54004,62.75,40.09009z"/></g><text x="0" y="84" fill="#000000" font-size="5px" font-weight="bold" font-family="'Helvetica Neue', Helvetica, Arial-Unicode, Arial, Sans-serif">Created by Vectors Point</text><text x="0" y="89" fill="#000000" font-size="5px" font-weight="bold" font-family="'Helvetica Neue', Helvetica, Arial-Unicode, Arial, Sans-serif">from the Noun Project</text></svg>